<svg width="1187" height="1186" xmlns="http://www.w3.org/2000/svg" xmlns:xlink="http://www.w3.org/1999/xlink" xml:space="preserve" overflow="hidden"><g transform="translate(-569 -641)"><path d="M825.912 1443.95 951.15 1568.78 892.571 1627.55 767.333 1502.72ZM1284.05 1663.26 1338.6 1717.63 1278.19 1778.23C1213.66 1842.97 1108.86 1843.14 1044.12 1778.61L982.282 1716.97 1040.86 1658.2 1092.31 1709.49C1132.67 1749.71 1197.99 1749.6 1238.21 1709.25ZM897.736 839.362 952.281 893.729 687.025 1159.85C646.8 1200.21 646.907 1265.53 687.263 1305.76L736.2 1354.53 677.621 1413.3 618.294 1354.17C553.552 1289.64 553.381 1184.84 617.913 1120.1ZM1647.22 1054.89 1706.55 1114.03C1771.29 1178.56 1771.46 1283.35 1706.93 1348.1L1424.44 1631.51 1369.89 1577.14 1645.19 1300.95C1685.41 1260.59 1685.3 1195.27 1644.95 1155.05L1596.01 1106.27ZM1429.76 838.138 1557.51 965.472 1506.3 1016.85 1378.55 889.514ZM1280.72 689.583 1340.05 748.718 1288.84 800.094 1239.9 751.315C1199.54 711.09 1134.22 711.197 1094 751.553L1038.12 807.606 983.58 753.238 1046.65 689.964C1111.18 625.222 1215.98 625.051 1280.72 689.583Z" fill-rule="evenodd"/><path d="M1309.25 1246.12 1368.82 1305.5 995.956 1679.57C920.626 1755.15 798.294 1755.35 722.719 1680.02L717.935 1675.25C642.36 1599.92 642.16 1477.59 717.49 1402.01L869.223 1249.78 928.793 1309.16 762.058 1476.44C721.44 1517.19 721.547 1583.15 762.298 1623.77L774.053 1635.49C814.805 1676.11 880.768 1676 921.387 1635.25ZM1602.12 788.178 1606.91 792.946C1682.48 868.276 1682.68 990.608 1607.35 1066.18L1454.66 1219.37 1395.09 1160 1554.04 1000.53C1594.66 959.783 1594.55 893.819 1553.8 853.201L1542.04 841.484C1501.29 800.865 1435.33 800.973 1394.71 841.724L1014.64 1223.04 955.067 1163.66 1328.89 788.623C1404.21 713.048 1526.55 712.848 1602.12 788.178Z" fill-rule="evenodd"/><path d="M823.57 1055.16 1146.89 1377.43 1087.52 1437 764.194 1114.73ZM1644.76 1448.51 1656.46 1470.41C1685.69 1540.95 1672.25 1624.51 1615.76 1681.19L1610.99 1685.97C1535.66 1761.55 1412.3 1760.73 1335.46 1684.14L1177.23 1526.42 1236.6 1466.85 1410.14 1639.82C1451.57 1681.12 1518.09 1681.56 1558.71 1640.81L1570.42 1629.06C1600.89 1598.49 1608.13 1553.44 1592.37 1515.4L1587.39 1506.07ZM1237.33 1031.2 1560.65 1353.47 1501.27 1413.04 1177.95 1090.77ZM989.378 784.055 1147.61 941.778 1088.24 1001.35 923.624 837.264C882.191 795.966 815.675 795.523 775.056 836.274L763.34 848.029C737.953 873.499 728.691 909.032 735.429 942.183L740.571 959.003 680.082 1019.69 668.381 997.788C639.151 927.241 652.587 843.685 709.084 787.003L713.853 782.219C789.182 706.644 912.539 707.466 989.378 784.055Z" fill-rule="evenodd"/></g></svg>